HIERARCHY
ROOT ui
{
	 OFFSET 0 0 0
	 CHANNELS 3 XPosition YPosition Z Position
	 EndSite
	 {
	 OFFSET 0 -1 0
	 }
}
ROOT li
{
	 OFFSET 0 0 0
	 CHANNELS 3 XPosition YPosition Z Position
	 EndSite
	 {
	 OFFSET 0 -1 0
	 }
}
ROOT ul
{
	 OFFSET 0 0 0
	 CHANNELS 3 XPosition YPosition Z Position
	 EndSite
	 {
	 OFFSET 0 -1 0
	 }
}
ROOT ll
{
	 OFFSET 0 0 0
	 CHANNELS 3 XPosition YPosition Z Position
	 EndSite
	 {
	 OFFSET 0 -1 0
	 }
}
ROOT tt
{
	 OFFSET 0 0 0
	 CHANNELS 3 XPosition YPosition Z Position
	 EndSite
	 {
	 OFFSET 0 -1 0
	 }
}
ROOT tb
{
	 OFFSET 0 0 0
	 CHANNELS 3 XPosition YPosition Z Position
	 EndSite
	 {
	 OFFSET 0 -1 0
	 }
}
ROOT td
{
	 OFFSET 0 0 0
	 CHANNELS 3 XPosition YPosition Z Position
	 EndSite
	 {
	 OFFSET 0 -1 0
	 }
}
ROOT v
{
	 OFFSET 0 0 0
	 CHANNELS 3 XPosition YPosition Z Position
	 EndSite
	 {
	 OFFSET 0 -1 0
	 }
}
ROOT bn
{
	 OFFSET 0 0 0
	 CHANNELS 3 XPosition YPosition Z Position
	 EndSite
	 {
	 OFFSET 0 -1 0
	 }
}
MOTION
Frames: 18
Frame Time: 0.002
0.017970256805419922	-0.003101248025894165	0		0.6678988037109375	-2.759111083984375	0		-0.8934049072265625	0.1795248260498047	0		-0.17557762145996095	-3.3875888671875	0		1.7117288818359375	-1.5725618896484375	0		2.98927880859375	-0.47351171875	0		4.33035595703125	0.057526809692382816	0		5.9792041015625	0.4369537963867188	0		-0.06839260864257812	6.001857421875	0		
-0.036017921447753905	-6.881970167160035E-4	0		0.6917864990234375	-2.76386865234375	0		-0.899471435546875	0.17622993469238282	0		-0.14772610473632813	-3.394398193359375	0		1.7118095703125	-1.5649720458984375	0		2.958104248046875	-0.48346868896484374	0		4.339107421875	0.04196032333374024	0		5.96921533203125	0.43865380859375	0		-0.07033042144775391	6.003494140625	0		
0.015866305351257323	-0.0018222249746322632	0		0.6647084350585938	-2.759830078125	0		-0.9365603637695312	0.1774359436035156	0		-0.18385504150390625	-3.393215576171875	0		1.727515869140625	-1.576586181640625	0		2.9830908203125	-0.47723333740234375	0		4.3457578125	0.025451879501342773	0		5.9730048828125	0.4311709899902344	0		-0.07037324523925781	6.00313818359375	0		
-0.03827587127685547	6.622520089149476E-4	0		0.6744044799804687	-2.766310546875	0		-0.9296023559570312	0.18601901245117186	0		-0.14023069763183593	-3.404193359375	0		1.7124990234375	-1.5647080078125	0		3.005739501953125	-0.48893707275390624	0		4.3505498046875	0.022999198913574218	0		5.98906982421875	0.4465310974121094	0		-0.06850547790527343	6.0007861328125	0		
0.019596485137939452	0.006502359867095947	0		0.6772150268554687	-2.761656494140625	0		-0.8938148193359375	0.18620152282714844	0		-0.14148838806152345	-3.4034677734375	0		1.74532275390625	-1.560517333984375	0		3.014940185546875	-0.460407470703125	0		4.37618603515625	0.013259977340698241	0		5.987865234375	0.44717254638671877	0		-0.036532722473144534	6.00801611328125	0		
0.012255653381347657	3.4628400206565855E-4	0		0.6869371948242188	-2.76107763671875	0		-0.8311759033203125	0.1780094451904297	0		-0.1597273712158203	-3.399457763671875	0		1.7750750732421876	-1.55925390625	0		2.979460693359375	-0.4751860961914062	0		4.379814453125	0.0048762688636779785	0		5.97839599609375	0.4319612121582031	0		-0.07275357818603516	6.00429541015625	0		
0.011014638900756836	0.001126209020614624	0		0.659703125	-2.75691796875	0		-0.9054060668945313	0.1798972473144531	0		-0.16407852172851561	-3.402629638671875	0		1.7738109130859374	-1.5585001220703125	0		3.0142685546875	-0.4709908447265625	0		4.3643349609375	-0.01019675064086914	0		5.96816259765625	0.43278765869140623	0		-0.07292060852050782	6.0040615234375	0		
0.005743545055389404	-0.0010103379487991333	0		0.6823577270507812	-2.761484375	0		-0.9106895141601562	0.17677447509765626	0		-0.16840048217773437	-3.404778564453125	0		1.7746209716796875	-1.55375390625	0		3.0160947265625	-0.46627810668945313	0		4.3608681640625	-0.02542677879333496	0		5.9669423828125	0.4335018615722656	0		-0.10439966583251953	5.98231884765625	0		
0.008592456817626952	0.00275164794921875	0		0.6421412963867188	-2.759085693359375	0		-0.907822998046875	0.18154966735839845	0		-0.1666009063720703	-3.4009990234375	0		1.7764473876953124	-1.5500025634765624	0		3.03328125	-0.43977294921875	0		4.3707158203125	-0.02183331871032715	0		5.96187353515625	0.44229693603515624	0		-0.07418120574951172	6.00467431640625	0		
0.007441731929779052	0.0035894670486450197	0		0.6958868408203125	-2.76308349609375	0		-0.9089713134765625	0.18239987182617187	0		-0.16779763793945313	-3.400158935546875	0		1.7724716796875	-1.53614501953125	0		3.027914306640625	-0.45291421508789065	0		4.37853369140625	-0.023189664840698242	0		5.9655927734375	0.43398007202148436	0		-0.07428101348876953	6.00349853515625	0		
0.015211554527282714	-0.0046961350440979	0		0.6548855590820313	-2.753641357421875	0		-0.8430101318359375	0.1862501678466797	0		-0.14004019165039064	-3.406743896484375	0		1.791342529296875	-1.5366180419921875	0		3.0399794921875	-0.44129803466796874	0		4.3792890625	-0.03242138671875	0		5.97250341796875	0.4346380920410156	0		0.060786262512207034	6.00929931640625	0		
0.0012766770124435424	0.0023544509410858153	0		0.6699207153320312	-2.747033935546875	0		-0.921071533203125	0.18527455139160157	0		-0.17406610107421874	-3.403389892578125	0		1.7664844970703124	-1.5234195556640624	0		3.034054443359375	-0.4333974914550781	0		4.3752470703125	-0.03256306838989258	0		5.95936181640625	0.4276173706054687	0		-0.1075851058959961	5.98467431640625	0		
0.010187641143798828	-0.005937726974487305	0		0.6627221069335938	-2.761089111328125	0		-0.9220223388671875	0.18613912963867188	0		-0.14309306335449218	-3.40601318359375	0		1.78959326171875	-1.5179378662109375	0		3.031280029296875	-0.4205341796875	0		4.3753701171875	-0.0267543888092041	0		5.95817138671875	0.4124314880371094	0		-0.10750703430175781	5.984517578125	0		
0.009315476417541504	-0.0050821080207824705	0		0.6648944702148437	-2.756282958984375	0		-0.9489055786132813	0.1863922576904297	0		-0.20276646423339845	-3.390268310546875	0		1.7789249267578124	-1.5029429931640625	0		3.063326416015625	-0.42519268798828125	0		4.3732412109375	-0.042906280517578124	0		5.96651171875	0.4271163330078125	0		-0.07606260681152344	6.00388916015625	0		
0.018676584243774413	0.005616374015808105	0		0.6582926635742188	-2.742345703125	0		-0.8407058715820312	0.18560179138183594	0		-0.13462043762207032	-3.393457763671875	0		1.76944873046875	-1.480965576171875	0		3.049929931640625	-0.39816009521484375	0		4.38064794921875	-0.029193756103515624	0		5.96985986328125	0.43688388061523437	0		-0.07504092407226562	5.99071142578125	0		
0.010867267608642579	-4.34673011302948E-4	0		0.6804760131835937	-2.748850341796875	0		-0.9293095703125	0.19377261352539063	0		-0.17234072875976564	-3.393056640625	0		1.7638935546875	-1.47005126953125	0		3.030166748046875	-0.40103482055664064	0		4.379943359375	-0.028357524871826172	0		5.94779638671875	0.41403741455078125	0		-0.1088235321044922	5.986052734375	0		
0.007199206829071045	-0.0025572760105133058	0		0.6699923095703125	-2.7388681640625	0		-0.8579561767578125	0.1925174102783203	0		-0.11990643310546875	-3.389025146484375	0		1.7883443603515625	-1.4645955810546876	0		3.05870654296875	-0.3896390075683594	0		4.3811689453125	-0.037550739288330075	0		5.9510517578125	0.4068152465820313	0		0.055966548919677735	6.0133916015625	0		
0.006651813983917236	-0.0017391330003738404	0		0.6445321655273437	-2.73267138671875	0		-0.9255569458007813	0.19034376525878907	0		-0.18028506469726563	-3.377303466796875	0		1.7780140380859375	-1.449622314453125	0		3.061235595703125	-0.383856689453125	0		4.381697265625	-0.03173390960693359	0		5.95148779296875	0.4066378784179687	0		-0.11001921844482422	5.9877021484375	0		
